<svg xmlns="http://www.w3.org/2000/svg" width="1200" height="628" viewBox="0 0 1200 628"><rect width="100%" height="100%" fill="#000000"/><path fill="#4ade80" d="M380.67 244.67h19.8v140.99h-23.11V294.6q0-5.47.58-11.8l-42.6 80.04q-3.03 5.76-9.27 5.76h-3.7q-6.24 0-9.26-5.76l-43.1-80.34q.29 3.22.49 6.34.19 3.12.19 5.76v91.06h-23.1V244.67h19.79q1.75 0 3.02.1t2.29.49 1.85 1.27 1.61 2.34l42.22 78.29q1.66 3.12 3.07 6.43 1.42 3.32 2.78 6.83 1.37-3.61 2.83-6.97 1.46-3.37 3.12-6.49l41.63-78.09q.78-1.46 1.66-2.34t1.9-1.27 2.29-.49 3.02-.1m58.7 41.54-12.68-2.24q1.47-10.14 5.66-17.8 4.19-7.65 10.48-12.77t14.43-7.7q8.14-2.59 17.5-2.59 9.75 0 17.6 2.78t13.41 7.71q5.55 4.92 8.53 11.55 2.97 6.63 2.97 14.33 0 6.73-1.51 11.85t-4.34 8.92-7.02 6.43q-4.19 2.64-9.46 4.39 12.68 4 18.92 12.19t6.24 20.57q0 10.53-3.9 18.62-3.9 8.1-10.53 13.61t-15.36 8.33q-8.72 2.83-18.47 2.83-10.63 0-18.53-2.44-7.9-2.43-13.75-7.21t-9.94-11.7q-4.1-6.92-7.02-15.99l10.63-4.39q4.19-1.76 7.84-.93 3.66.83 5.32 3.95 1.75 3.42 3.85 6.73t5.02 5.9q2.93 2.58 6.87 4.19 3.95 1.61 9.41 1.61 6.15 0 10.73-2t7.65-5.22q3.07-3.21 4.58-7.16 1.52-3.95 1.52-7.95 0-5.07-1.08-9.21-1.07-4.15-4.48-7.07-3.41-2.93-9.8-4.58-6.39-1.66-17.11-1.66v-17.16q8.87-.1 14.72-1.66t9.31-4.34 4.83-6.68q1.36-3.9 1.36-8.57 0-9.95-5.55-15.12-5.56-5.17-14.82-5.17-4.29 0-7.9 1.22t-6.49 3.42q-2.87 2.19-4.82 5.11-1.95 2.93-2.93 6.44-1.65 4.49-4.34 5.95-2.68 1.46-7.55.68m125.87-45.43v55.57q5.85-5.46 12.87-8.87t16.48-3.41q8.19 0 14.53 2.77 6.33 2.78 10.57 7.8 4.25 5.02 6.44 12 2.19 6.97 2.19 15.35v63.67h-24.08v-63.67q0-9.16-4.19-14.18-4.19-5.03-12.77-5.03-6.24 0-11.7 2.83t-10.34 7.71v72.34h-24.08V240.78zm138.74 119.04v-16.86q-10.43.48-17.55 1.8-7.11 1.31-11.4 3.36t-6.15 4.78q-1.85 2.73-1.85 5.95 0 6.33 3.75 9.06 3.76 2.73 9.8 2.73 7.41 0 12.82-2.68 5.42-2.68 10.58-8.14m-50.89-52.55-4.29-7.7q17.26-15.8 41.53-15.8 8.78 0 15.7 2.88 6.92 2.87 11.7 7.99t7.26 12.24q2.49 7.12 2.49 15.6v63.18h-10.92q-3.41 0-5.26-1.02-1.86-1.03-2.93-4.15l-2.14-7.21q-3.81 3.41-7.41 5.99-3.61 2.59-7.51 4.34-3.9 1.76-8.34 2.68-4.43.93-9.8.93-6.33 0-11.7-1.71-5.36-1.7-9.26-5.12-3.9-3.41-6.04-8.48-2.15-5.07-2.15-11.8 0-3.8 1.27-7.55 1.27-3.76 4.14-7.17 2.88-3.41 7.46-6.43 4.58-3.03 11.26-5.27t15.55-3.65q8.88-1.42 20.28-1.71v-5.85q0-10.04-4.29-14.87t-12.38-4.83q-5.85 0-9.7 1.37t-6.78 3.07q-2.92 1.71-5.31 3.07-2.39 1.37-5.31 1.37-2.54 0-4.29-1.32-1.76-1.32-2.83-3.07m117.88-17.26 1.65 7.9q3.03-3.02 6.39-5.61 3.36-2.58 7.12-4.38 3.75-1.81 8.04-2.83t9.36-1.02q8.19 0 14.53 2.77 6.34 2.78 10.58 7.8t6.43 12q2.2 6.97 2.2 15.35v63.67h-24.09v-63.67q0-9.16-4.19-14.18-4.19-5.03-12.77-5.03-6.24 0-11.7 2.83t-10.34 7.71v72.34H750.1V285.63h14.72q4.68 0 6.15 4.38m89.11-49.23h24.08v82.97h4.49q2.44 0 3.85-.64 1.41-.63 2.88-2.58l24.86-30.71q1.56-2.05 3.46-3.12t4.92-1.07h22.04l-31.1 37.14q-3.32 4.39-7.22 6.73 2.05 1.46 3.66 3.41t3.07 4.2l33.34 48.55h-21.74q-2.83 0-4.87-.93-2.05-.92-3.42-3.36l-25.54-37.93q-1.37-2.24-2.83-2.92-1.46-.69-4.39-.69h-5.46v45.83h-24.08z"/></svg>